<?xml version="1.0" encoding="UTF-8"?>
<svg id="Layer_7" data-name="Layer 7" xmlns="http://www.w3.org/2000/svg" viewBox="0 0 1198.38 348.78">
  <defs>
    <style>
      .cls-1 {
        fill: #fff;
      }

      .cls-1, .cls-2 {
        stroke-width: 0px;
      }

      .cls-2 {
        fill: #69f;
      }
    </style>
  </defs>
  <g>
    <path class="cls-2" d="M286.09,141.56h0v-9.67c0-13.75-7.77-26.31-20.06-32.46h0c13.95-48.81-46.2-84.2-82.09-48.3l-4.84,4.84c-13.47-6.74-29.33-6.74-42.8,0h0l-4.84-4.84c-35.9-35.9-96.04-.51-82.09,48.3h0c-12.29,6.15-20.06,18.71-20.06,32.46v9.67h0c-35.08,7.02-35.08,57.18,0,64.19h0v9.67c0,13.75,7.77,26.31,20.06,32.46h0c-13.95,48.81,46.2,84.2,82.09,48.3l4.84-4.84h0c13.47,6.74,29.33,6.74,42.8,0l4.84,4.84c35.9,35.9,96.04.51,82.09-48.3h0c12.29-6.15,20.06-18.71,20.06-32.46v-9.67h0c35.08-7.02,35.08-57.18,0-64.19ZM250.74,208.55c0,32.12-26.04,58.15-58.15,58.15-13.09,0-25.17-4.33-34.89-11.63-9.72,7.3-21.8,11.63-34.89,11.63-32.12,0-58.15-26.04-58.15-58.15,0-13.09,4.33-25.17,11.63-34.89-7.3-9.72-11.63-21.8-11.63-34.89,0-32.12,26.04-58.15,58.15-58.15,13.09,0,25.17,4.33,34.89,11.63,9.72-7.3,21.8-11.63,34.89-11.63,32.12,0,58.15,26.04,58.15,58.15,0,13.09-4.33,25.17-11.63,34.89,7.3,9.72,11.63,21.8,11.63,34.89Z"/>
    <polygon class="cls-1" points="187.61 194.15 193.15 191.38 193.15 182.52 237.45 173.66 193.15 164.8 193.15 155.94 187.61 153.17 202.01 102.77 163.61 141.17 157.7 138.21 151.79 141.17 113.4 102.77 127.8 153.17 122.26 155.94 122.26 164.8 77.95 173.66 122.26 182.52 122.26 191.38 127.8 194.15 113.4 244.55 151.79 206.15 157.7 209.1 163.61 206.15 202.01 244.55 187.61 194.15"/>
  </g>
  <g>
    <path class="cls-1" d="M503.75,93.27l-6.93,42.68c-14.79-5.55-30.77-8.33-47.92-8.33-7.76,0-14.36.66-19.8,1.98-5.44,1.32-8.54,4.31-9.32,8.97,0,4.15,4.14,7.33,12.43,9.52,8.29,2.19,17.7,4.58,28.24,7.16,10.54,2.58,19.35,6.82,26.44,12.72,7.08,5.9,10.63,14.71,10.63,26.44,0,2.99-.23,6.17-.7,9.55-2.17,13.9-7.88,25.01-17.12,33.34-9.24,8.33-20.21,14.15-32.9,17.47-12.69,3.32-25.99,4.98-39.89,4.98-12.27,0-23.64-.61-34.12-1.83-10.48-1.22-21.6-3.23-33.37-6.03l6.87-43.15c16.46,7.3,35,10.95,55.61,10.95,8.31,0,15.29-.94,20.96-2.82,5.67-1.88,8.77-4.76,9.32-8.65,0-4.35-4.38-7.72-13.13-10.13-8.75-2.41-18.16-4.91-28.21-7.51-10.05-2.6-18.6-6.88-25.62-12.84-7.03-5.96-10.54-14.8-10.54-26.52,0-2.91.23-6.15.7-9.72,2.21-14.17,8.16-25.26,17.85-33.28,9.69-8.02,21.05-13.46,34.09-16.33,13.04-2.87,27.06-4.31,42.04-4.31,18.09,0,36.22,1.9,54.39,5.71Z"/>
    <path class="cls-1" d="M506.37,256.9l26.5-166.48h63.88l-18.58,117.34h78.44l-7.86,49.15h-142.38Z"/>
    <path class="cls-1" d="M692.19,90.42h63.88l-26.44,166.48h-63.94l26.5-166.48Z"/>
    <path class="cls-1" d="M753.74,256.9l26.5-166.48h94.45l7.16,91.13h.47l35.99-91.13h94.22l-26.44,166.48h-57.3l19.8-130.73h-.47l-53.4,130.73h-53.22l-10.95-130.73h-.93l-21.49,130.73h-54.39Z"/>
    <path class="cls-1" d="M1007.75,256.9l26.5-166.48h144.3l-6.46,40.06h-81.82l-3.78,23.64h78.21l-6.17,40.06h-78.26l-3.55,22.65h83.45l-6.41,40.06h-145.99Z"/>
  </g>
</svg>